<?xml version="1.0" encoding="UTF-8" standalone="no"?>
<!-- Created with Inkscape (http://www.inkscape.org/) -->

<svg
   width="256mm"
   height="256mm"
   viewBox="0 0 256 256"
   version="1.1"
   id="svg5"
   xml:space="preserve"
   sodipodi:docname="REP.svg"
   inkscape:version="1.2.2 (732a01da63, 2022-12-09)"
   inkscape:export-filename="REP.png"
   inkscape:export-xdpi="50.799999"
   inkscape:export-ydpi="50.799999"
   xmlns:inkscape="http://www.inkscape.org/namespaces/inkscape"
   xmlns:sodipodi="http://sodipodi.sourceforge.net/DTD/sodipodi-0.dtd"
   xmlns="http://www.w3.org/2000/svg"
   xmlns:svg="http://www.w3.org/2000/svg"><sodipodi:namedview
     id="namedview7"
     pagecolor="#ffffff"
     bordercolor="#666666"
     borderopacity="1.0"
     inkscape:showpageshadow="2"
     inkscape:pageopacity="0.0"
     inkscape:pagecheckerboard="0"
     inkscape:deskcolor="#d1d1d1"
     inkscape:document-units="mm"
     showgrid="false"
     inkscape:zoom="0.70710677"
     inkscape:cx="265.16505"
     inkscape:cy="545.88644"
     inkscape:window-width="1920"
     inkscape:window-height="1027"
     inkscape:window-x="1912"
     inkscape:window-y="-8"
     inkscape:window-maximized="1"
     inkscape:current-layer="svg5"
     showguides="true"><inkscape:grid
       type="xygrid"
       id="grid13671"
       originx="0"
       originy="0" /></sodipodi:namedview><defs
     id="defs2"><inkscape:path-effect
       effect="mirror_symmetry"
       start_point="19.831399,95.85602"
       end_point="19.831399,110.19523"
       center_point="19.831399,103.02563"
       id="path-effect2808"
       is_visible="true"
       lpeversion="1.2"
       lpesatellites=""
       mode="free"
       discard_orig_path="false"
       fuse_paths="false"
       oposite_fuse="false"
       split_items="false"
       split_open="false"
       link_styles="false" /><filter
       id="selectable_hidder_filter"
       width="1"
       height="1"
       x="0"
       y="0"
       style="color-interpolation-filters:sRGB"
       inkscape:label="LPE boolean visibility"><feComposite
         id="boolops_hidder_primitive"
         result="composite1"
         operator="arithmetic"
         in2="SourceGraphic"
         in="BackgroundImage"
         k1="0"
         k2="0"
         k3="0"
         k4="0" /></filter><inkscape:path-effect
       effect="bool_op"
       operand-path=""
       id="path-effect13563"
       is_visible="true"
       lpeversion="1"
       operation="union"
       swap-operands="false"
       filltype-this="from-curve"
       filter=""
       filltype-operand="from-curve" /><inkscape:path-effect
       effect="powerstroke"
       id="path-effect13468"
       is_visible="true"
       lpeversion="1"
       offset_points="0.45736434,0.79690173 | 1.0263234,0.8175103 | 1.8095239,0.36127167"
       not_jump="false"
       sort_points="true"
       interpolator_type="CentripetalCatmullRom"
       interpolator_beta="0.2"
       start_linecap_type="zerowidth"
       linejoin_type="round"
       miter_limit="4"
       scale_width="1"
       end_linecap_type="zerowidth" /><inkscape:path-effect
       effect="mirror_symmetry"
       start_point="103.91359,107.68894"
       end_point="103.91359,177.35297"
       center_point="103.91359,142.52096"
       id="path-effect13190"
       is_visible="true"
       lpeversion="1.2"
       lpesatellites=""
       mode="free"
       discard_orig_path="false"
       fuse_paths="true"
       oposite_fuse="false"
       split_items="false"
       split_open="false"
       link_styles="false" /><inkscape:path-effect
       effect="mirror_symmetry"
       start_point="104.25249,147.88435"
       end_point="104.25249,153.744"
       center_point="104.25249,150.81418"
       id="path-effect12440"
       is_visible="true"
       lpeversion="1.2"
       lpesatellites=""
       mode="free"
       discard_orig_path="false"
       fuse_paths="true"
       oposite_fuse="false"
       split_items="false"
       split_open="false"
       link_styles="false" /><inkscape:path-effect
       effect="mirror_symmetry"
       start_point="107.76,147.88435"
       end_point="107.76,153.74401"
       center_point="107.75668,150.81418"
       id="path-effect12415"
       is_visible="true"
       lpeversion="1.2"
       lpesatellites=""
       mode="free"
       discard_orig_path="false"
       fuse_paths="false"
       oposite_fuse="false"
       split_items="false"
       split_open="false"
       link_styles="false" /><inkscape:path-effect
       effect="mirror_symmetry"
       start_point="104.45581,156.4377"
       end_point="104.45581,161.1354"
       center_point="104.45581,158.78655"
       id="path-effect9037"
       is_visible="true"
       lpeversion="1.2"
       lpesatellites=""
       mode="free"
       discard_orig_path="false"
       fuse_paths="true"
       oposite_fuse="false"
       split_items="false"
       split_open="false"
       link_styles="false" /><inkscape:path-effect
       effect="taper_stroke"
       id="path-effect9031"
       is_visible="false"
       lpeversion="1"
       stroke_width="0.97884601"
       attach_start="0.2"
       end_offset="0.2"
       start_smoothing="0.5"
       end_smoothing="0.5"
       jointype="extrapolated"
       start_shape="center"
       end_shape="center"
       miter_limit="100" /><inkscape:path-effect
       effect="mirror_symmetry"
       start_point="111.71411,157.07406"
       end_point="111.71411,160.58346"
       center_point="111.71411,158.82876"
       id="path-effect5683"
       is_visible="true"
       lpeversion="1.2"
       lpesatellites=""
       mode="free"
       discard_orig_path="false"
       fuse_paths="false"
       oposite_fuse="false"
       split_items="false"
       split_open="false"
       link_styles="false" /><inkscape:path-effect
       effect="powerstroke"
       id="path-effect5681"
       is_visible="false"
       lpeversion="1"
       offset_points="0.2,0.1322915 | 1,0.1322915 | 1.8,0.1322915"
       not_jump="false"
       sort_points="true"
       interpolator_type="CentripetalCatmullRom"
       interpolator_beta="0.1015625"
       start_linecap_type="zerowidth"
       linejoin_type="spiro"
       miter_limit="4"
       scale_width="1"
       end_linecap_type="zerowidth" /><inkscape:path-effect
       effect="fill_between_many"
       method="bsplinespiro"
       linkedpaths="#path7314,0,1"
       id="path-effect9033"
       is_visible="true"
       lpeversion="0"
       join="true"
       close="true"
       autoreverse="true" /><inkscape:path-effect
       effect="mirror_symmetry"
       start_point="103.91359,107.68893"
       end_point="103.91359,177.35296"
       center_point="103.91359,142.52095"
       id="path-effect13190-5"
       is_visible="true"
       lpeversion="1.2"
       lpesatellites=""
       mode="free"
       discard_orig_path="false"
       fuse_paths="true"
       oposite_fuse="false"
       split_items="false"
       split_open="false"
       link_styles="false" /><inkscape:path-effect
       effect="mirror_symmetry"
       start_point="103.91359,107.68893"
       end_point="103.91359,177.35296"
       center_point="103.91359,142.52095"
       id="path-effect13190-4"
       is_visible="true"
       lpeversion="1.2"
       lpesatellites=""
       mode="free"
       discard_orig_path="false"
       fuse_paths="true"
       oposite_fuse="false"
       split_items="false"
       split_open="false"
       link_styles="false" /></defs><rect
     style="display:none;fill:#fbd5e2;stroke:#fbd5e2;stroke-width:0.998922;stroke-linejoin:round;stroke-miterlimit:7.2;paint-order:markers fill stroke;fill-opacity:1.0;stroke-opacity:1.0"
     id="rect371"
     width="255.00108"
     height="255.00108"
     x="0.49946073"
     y="0.49946073"
     inkscape:label="BG"
     sodipodi:insensitive="true" /><g
     inkscape:label="RabbitEyePatch"
     inkscape:groupmode="layer"
     id="layer1"
     transform="translate(23.846799,30.539071)"><path
       id="path957-4-9"
       style="display:inline;fill:#ffffff;fill-opacity:1.0;stroke:#fb4482;stroke-width:3.14399;stroke-opacity:1.0;paint-order:markers fill stroke"
       d="m 103.91359,107.68893 c -7.534146,0.0987 -16.710455,1.19811 -23.289571,3.59159 -18.104296,6.58633 -36.975162,22.63885 -36.970873,41.83052 0.03283,6.16753 2.822862,11.67182 7.545278,15.49414 5.232436,4.21236 11.735466,5.82805 18.122925,6.6828 8.682542,1.22799 22.615492,2.18266 34.592241,2.05257 11.97675,0.13009 25.9097,-0.82458 34.59224,-2.05257 6.38746,-0.85475 12.89049,-2.47044 18.12293,-6.6828 4.72241,-3.82232 7.51244,-9.32661 7.54527,-15.49414 0.004,-19.19167 -18.86657,-35.24419 -36.97087,-41.83052 -6.57912,-2.39348 -15.75542,-3.49289 -23.28957,-3.59159 z"
       sodipodi:nodetypes="cscccc"
       inkscape:path-effect="#path-effect13190"
       inkscape:original-d="m 103.91359,107.68893 c -7.534146,0.0987 -16.710455,1.19811 -23.289571,3.59159 -18.104296,6.58633 -36.975162,22.63885 -36.970873,41.83052 0.03283,6.16753 2.822862,11.67182 7.545278,15.49414 5.232436,4.21236 11.735466,5.82805 18.122925,6.6828 8.682542,1.22799 22.615492,2.18266 34.592241,2.05257"
       class="UnoptimicedTransforms"
       transform="matrix(0.93662377,0,0,0.97210834,6.5856522,3.9751447)"
       inkscape:label="Outline" /><path
       id="path5214"
       style="display:inline;opacity:1;fill:#fb4482;fill-opacity:1.0"
       d="m 104.07617,147.88477 c -0.51185,0.009 -1.92975,0.097 -2.82031,0.5625 -0.43517,0.22744 -0.9763,0.96562 -0.45508,2.39843 0.46549,1.27962 2.30965,2.92136 3.45117,2.92383 1.14152,-0.002 2.98569,-1.64421 3.45117,-2.92383 0.52122,-1.43281 -0.0179,-2.17099 -0.45312,-2.39843 -0.89056,-0.46551 -2.31042,-0.55311 -2.82227,-0.5625 -0.0604,-3.5e-4 -0.17281,-1e-5 -0.17578,0 -0.003,-1e-5 -0.11539,-3.5e-4 -0.17578,0 z"
       sodipodi:nodetypes="cczsscccc"
       inkscape:path-effect="#path-effect12440"
       inkscape:original-d="m 104.27687,147.86591 -0.0248,0.0196 c 10e-4,0.10332 1.14432,5.8833 0.003,5.8833 -1.14132,0 -2.98827,-1.64333 -3.45411,-2.92391 -0.52122,-1.43281 0.0198,-2.17075 0.45497,-2.39819 0.89056,-0.46551 2.30917,-0.55181 2.82102,-0.5612 v -0.001 c 0.0612,-3.5e-4 0.1756,0 0.1756,0 z"
       class="UnoptimicedTransforms"
       transform="translate(-0.33856917)"
       inkscape:label="Nose" /><g
       inkscape:groupmode="layer"
       id="layer4"
       inkscape:label="Mouth"
       style="display:inline"><path
         id="ellipse9136"
         style="display:inline;opacity:1;fill:#fb4482;fill-opacity:1.0;stroke:#fb4482;stroke-width:1;stroke-linejoin:bevel;stroke-miterlimit:7.2;stroke-dasharray:none;stroke-dashoffset:0;stroke-opacity:1.0;paint-order:markers fill stroke"
         d="m 113.5766,155.74641 c -0.25296,-3e-5 -0.45737,0.20109 -0.45739,0.45003 -10e-6,0.003 -10e-6,0.008 0,0.0107 -0.47689,2.59171 -2.2727,4.80794 -4.33976,4.80918 -2.06534,-0.001 -3.85938,-0.84994 -4.33775,-3.43704 a 0.53025947,0.58543241 0 0 0 0.002,-0.0522 0.53025947,0.58543241 0 0 0 -0.53026,-0.58577 0.53025947,0.58543241 0 0 0 -0.53027,0.58577 0.53025947,0.58543241 0 0 0 0.002,0.0528 c -0.47837,2.58709 -2.27309,3.43539 -4.338407,3.43704 -2.067057,-0.001 -3.8622,-2.21747 -4.339099,-4.80918 h -0.0027 c 2e-5,-0.003 2e-5,-0.008 0,-0.0107 -1.1e-5,-0.24894 -0.204421,-0.45005 -0.457381,-0.45002 -0.252959,-3e-5 -0.45737,0.20376 -0.45738,0.4527 -2.1e-5,0.003 -2.1e-5,0.005 0,0.007 v 0.0107 c 0.0016,0.0392 0.0082,0.0782 0.02006,0.11568 3.54e-4,0.003 9.84e-4,0.004 0.0013,0.007 0.530528,3.19749 2.711311,5.48168 5.235136,5.48522 2.420061,-0.002 4.169881,-0.8816 4.770381,-3.72324 a 0.53025947,0.58543241 0 0 0 0.0963,0.01 0.53025947,0.58543241 0 0 0 0.0943,-0.01 c 0.6009,2.84103 2.35188,3.7208 4.77173,3.72324 2.52552,-0.004 4.7078,-2.29106 5.23647,-5.49191 0.0116,-0.0375 0.0165,-0.0771 0.0181,-0.11635 l 0.003,-0.01 c 1e-5,-0.003 1e-5,-0.005 0,-0.008 -2e-5,-0.24894 -0.20709,-0.45273 -0.46005,-0.4527 z"
         inkscape:label="Mouth" /><path
         id="path10139"
         style="opacity:1;fill:#fb4482;fill-opacity:1.0;stroke:#fb4482;stroke-width:0.734222;stroke-linejoin:round;stroke-miterlimit:7.2;stroke-opacity:1.0;paint-order:markers fill stroke"
         inkscape:transform-center-x="-0.072843751"
         inkscape:transform-center-y="-0.028787271"
         d="m 106.66367,161.71055 c -1.36957,-0.79072 -4.08789,-0.8103 -5.49138,0 -1.403489,0.8103 2.63247,-3.01234 2.63247,-3.01234 0,0 4.22848,3.80306 2.85891,3.01234 z"
         sodipodi:nodetypes="zzcz"
         inkscape:label="MouthShadow" /></g><g
       inkscape:groupmode="layer"
       id="layer2"
       inkscape:label="Eye"><ellipse
         style="display:inline;fill:#ffffff;fill-opacity:1.0;stroke:#fb4482;stroke-width:3.00014;stroke-opacity:1.0;paint-order:markers fill stroke"
         id="path2463-2"
         cx="-70.407043"
         cy="145.26768"
         rx="8.4048796"
         ry="10.357841"
         transform="matrix(-0.99839989,0.05654791,0.07033168,0.99752366,0,0)"
         inkscape:label="RightEye" /><ellipse
         style="display:inline;fill:#ffffff;fill-opacity:1.0;stroke:#fb4482;stroke-width:3.00014;stroke-opacity:1.0;paint-order:markers fill stroke"
         id="path2463-2-4"
         cx="136.92526"
         cy="133.51437"
         rx="8.4048796"
         ry="10.357841"
         transform="matrix(0.99839989,0.05654791,-0.07033168,0.99752366,0,0)"
         inkscape:label="RightEye" /></g><g
       id="g2750"
       inkscape:label="Eyepatch"><path
         id="rect2720"
         style="fill:#ffffff;fill-opacity:1.0;stroke:#fb4482;stroke-width:1;stroke-linejoin:round;stroke-miterlimit:7.2;stroke-opacity:1.0;paint-order:markers fill stroke"
         d="M 159.20844,156.99046 80.020283,111.72892 m -1.368307,2.34625 79.188154,45.26153"
         sodipodi:nodetypes="cccc"
         inkscape:label="String" /><rect
         style="fill:#ffffff;fill-opacity:1.0;stroke:#fb4482;stroke-width:1;stroke-linejoin:round;stroke-miterlimit:7.2;stroke-opacity:1.0;paint-order:markers fill stroke"
         id="rect2606"
         width="26"
         height="26"
         x="115.35834"
         y="127.26459"
         ry="5.0053501"
         inkscape:label="Eyepatch" /></g><g
       inkscape:groupmode="layer"
       id="layer3"
       inkscape:label="Ear"><path
         id="path5104-7"
         style="fill:#ffffff;fill-opacity:1.0;stroke:#fb4482;stroke-width:3;stroke-linejoin:round;stroke-opacity:1.0;paint-order:markers fill stroke"
         d="m 179.46426,18.512703 a 97.41185,97.41185 0 0 1 0.0315,0.845943 97.41185,97.41185 0 0 1 -50.63774,85.381844 97.41185,97.41185 0 0 1 -0.0294,-0.79065 97.41185,97.41185 0 0 1 50.63567,-85.437137 z"
         inkscape:label="LeftEar" /><path
         id="rect13800-1"
         style="fill:#fb4482;fill-opacity:1.0;stroke:#fb4482;stroke-width:0.5;stroke-linecap:butt;stroke-linejoin:miter;stroke-miterlimit:7.2;stroke-opacity:1.0;paint-order:markers fill stroke"
         d="m 143.73305,52.101298 v 0.633213 h 16.72957 l 6.51616,11.28652 0.54838,-0.316607 -6.33338,-10.969913 h 2.19374 l 5.785,10.020095 0.54837,-0.316606 -5.60219,-9.703489 h 9.58897 v -0.633213 z m 31.05156,-1.899637 v -0.633213 h -12.49408 l -6.51614,-11.28652 -0.54839,0.316607 6.33337,10.969913 h -2.19373 l -5.785,-10.020095 -0.54837,0.316607 5.6022,9.703488 h -13.35829 v 0.633213 z"
         sodipodi:nodetypes="cccccccccccccccccccccccccc"
         inkscape:label="LCross" /><path
         id="path5104"
         style="opacity:1;fill:#ffffff;fill-opacity:1.0;stroke:#fb4482;stroke-width:3;stroke-linejoin:round;stroke-opacity:1.0;paint-order:markers fill stroke"
         d="m 28.842167,18.513079 a 97.41185,97.41185 0 0 0 -0.03152,0.845943 97.41185,97.41185 0 0 0 50.637736,85.381848 97.41185,97.41185 0 0 0 0.02945,-0.79065 97.41185,97.41185 0 0 0 -50.635669,-85.437141 z"
         inkscape:label="RightEar" /><path
         id="rect13800-1-0"
         style="fill:#fb4482;fill-opacity:1.0;stroke:#fb4482;stroke-width:0.5;stroke-linecap:butt;stroke-linejoin:miter;stroke-miterlimit:7.2;stroke-opacity:1.0;paint-order:markers fill stroke"
         d="m 64.335981,52.101298 v 0.633213 h -16.72957 l -6.51616,11.28652 -0.54838,-0.316607 6.33338,-10.969913 h -2.19374 l -5.785,10.020095 -0.54837,-0.316606 5.60219,-9.703489 h -9.58897 v -0.633213 z m -31.05156,-1.899637 v -0.633213 h 12.49408 l 6.51614,-11.28652 0.54839,0.316607 -6.33337,10.969913 h 2.19373 l 5.785,-10.020095 0.54837,0.316607 -5.6022,9.703488 h 13.35829 v 0.633213 z"
         sodipodi:nodetypes="cccccccccccccccccccccccccc"
         inkscape:label="RCross" /></g></g></svg>
